Coordinates
version=1
nRows=14
nColumns=24
inDegrees=yes

Units are S.I. units (second, meters, Newtons, ...)
Angles are in degrees.

endheader
time	pelvis_tilt	pelvis_list	pelvis_rotation	pelvis_tx	pelvis_ty	pelvis_tz	hip_flexion_r	hip_adduction_r	hip_rotation_r	knee_angle_r	ankle_angle_r	subtalar_angle_r	mtp_angle_r	hip_flexion_l	hip_adduction_l	hip_rotation_l	knee_angle_l	ankle_angle_l	subtalar_angle_l	mtp_angle_l	lumbar_extension	lumbar_bending	lumbar_rotation
      6.23000000	      4.58101620	     -0.89478350	      0.44136484	     -0.80488714	      1.04187564	      0.28038442	    -21.25814718	      4.86972927	    -11.46384097	    -14.08739587	      4.37597278	    -10.38172263	      0.00000000	     15.35396817	      2.37059334	     -2.24155041	     -2.22470555	      2.13282709	    -12.86063784	      0.00000000	    -17.38753385	     -1.03842652	      1.61456087
      6.24000000	      4.67334565	     -0.47242495	      0.67130216	     -0.78912882	      1.04084110	      0.27896681	    -21.32796678	      4.08775543	    -12.91833451	    -15.69644487	      3.64614256	     -9.11783464	      0.00000000	     15.36299934	      2.99852037	     -2.72344267	     -3.83741574	      2.03221756	    -12.75462347	      0.00000000	    -17.09527371	     -1.42177443	      1.54833527
      6.25000000	      4.70719093	      0.01170652	      0.81957597	     -0.77315889	      1.03983831	      0.27753519	    -21.26407487	      3.14831092	    -14.41727544	    -17.44349166	      2.58766794	     -7.98853308	      0.00000000	     15.33040369	      3.64850984	     -2.98124067	     -5.30062103	      1.53524026	    -13.07011800	      0.00000000	    -16.70051563	     -1.88115566	      1.54309956
      6.26000000	      4.70341057	      0.58836072	      0.93043533	     -0.75708772	      1.03894156	      0.27604144	    -21.07737784	      2.03300085	    -15.95718843	    -19.33117334	      1.11573428	     -7.04649785	      0.00000000	     15.25406649	      4.38241394	     -2.88301154	     -6.60987087	      0.66247776	    -13.97966386	      0.00000000	    -16.24565313	     -2.44113408	      1.54817744
      6.27000000	      4.68603952	      1.25016001	      1.03447742	     -0.74104491	      1.03821930	      0.27450448	    -20.79556439	      0.78746176	    -17.39971899	    -21.31592696	     -0.98039224	     -6.62205396	      0.00000000	     15.15265831	      5.21544457	     -2.37486023	     -7.83840788	     -0.49145104	    -15.53026230	      0.00000000	    -15.78100520	     -3.09511271	      1.53082441
      6.28000000	      4.67635529	      1.96872709	      1.15389444	     -0.72514762	      1.03773753	      0.27295301	    -20.42931001	     -0.53367024	    -18.66782765	    -23.38365306	     -3.76569378	     -6.79679224	      0.00000000	     15.07049207	      6.11860774	     -1.72126956	     -9.12203610	     -1.55262465	    -17.18127608	      0.00000000	    -15.35485025	     -3.80978202	      1.49030654
      6.29000000	      4.65847742	      2.72521371	      1.34014804	     -0.70945225	      1.03745061	      0.27135488	    -19.94936165	     -1.88584580	    -19.75364346	    -25.54885572	     -7.12014047	     -7.43817018	      0.00000000	     15.05517886	      7.08589404	     -1.04905800	    -10.54843757	     -2.11806451	    -18.60820450	      0.00000000	    -14.96056743	     -4.56087578	      1.33552166
      6.30000000	      4.64294353	      3.47367883	      1.58726826	     -0.69402911	      1.03735251	      0.26972589	    -19.34329837	     -3.21846308	    -20.60727859	    -27.83267440	    -10.87900832	     -8.47448911	      0.00000000	     15.05160368	      8.07504999	     -0.35185735	    -12.05359887	     -2.25013599	    -19.77437120	      0.00000000	    -14.62256196	     -5.29547169	      1.14547250
      6.31000000	      4.60252716	      4.17697585	      1.89112976	     -0.67891835	      1.03738113	      0.26809486	    -18.56602529	     -4.46633005	    -21.12115258	    -30.23717297	    -14.89123278	     -9.88870920	      0.00000000	     15.04959844	      9.04005939	      0.29944864	    -13.56916755	     -1.88883704	    -20.61147021	      0.00000000	    -14.31946461	     -5.97826322	      0.90551730
      6.32000000	      4.51612522	      4.81112123	      2.20405160	     -0.66416923	      1.03750621	      0.26653889	    -17.55654845	     -5.60469802	    -21.22780132	    -32.79735623	    -18.98295039	    -11.64129525	      0.00000000	     15.00939661	      9.92990554	      0.83296869	    -14.95888678	     -1.11217728	    -21.06562640	      0.00000000	    -14.03202294	     -6.59111648	      0.65249761
      6.33000000	      4.36446830	      5.38827682	      2.46818946	     -0.64981697	      1.03769031	      0.26515347	    -16.26309458	     -6.64598529	    -20.88960566	    -35.53957891	    -22.94733666	    -13.64686895	      0.00000000	     14.91945864	     10.72381284	      1.15994909	    -16.12847769	      0.01839822	    -21.12776055	      0.00000000	    -13.74224444	     -7.16717884	      0.42603744
      6.34000000	      4.14702385	      5.94451306	      2.65764895	     -0.63587691	      1.03792616	      0.26397765	    -14.67747732	     -7.64252813	    -20.22207637	    -38.46756403	    -26.63791353	    -15.80030018	      0.00000000	     14.77767571	     11.42674296	      1.15327225	    -17.04140666	      1.41059776	    -20.66619181	      0.00000000	    -13.44589776	     -7.74857634	      0.24715599
      6.35000000	      3.91463342	      6.50933565	      2.70668012	     -0.62232566	      1.03826705	      0.26304242	    -12.86030450	     -8.61748674	    -19.21643218	    -41.52936983	    -30.06875337	    -18.14452590	      0.00000000	     14.47556513	     12.08705743	      1.07450793	    -17.56807391	      2.51239168	    -20.45816265	      0.00000000	    -13.19123385	     -8.36899022	      0.15249313
      6.36000000	      3.65977852	      7.07128138	      2.60917192	     -0.60913288	      1.03870381	      0.26239632	    -10.82820552	     -9.52579461	    -17.89830999	    -44.64733794	    -33.12278730	    -20.67481435	      0.00000000	     14.07951107	     12.67208654	      0.77438394	    -17.80593475	      3.69574682	    -19.94324420	      0.00000000	    -12.94526217	     -9.01869312	      0.14076490
